<svg t="1564560092036" class="icon" viewBox="0 0 1024 1024" version="1.1" xmlns="http://www.w3.org/2000/svg" p-id="1866" width="128" height="128"><path d="M512 288m-224 0a224 224 0 1 0 448 0 224 224 0 1 0-448 0Z" fill="#298DF7" p-id="1867"></path><path d="M850.08 960H173.92C130.96 960 96 924.28 96 880.38v-35.91c0-107.55 71.65-204.07 174.24-234.73C344.11 587.66 427.71 576 512 576s167.89 11.66 241.76 33.73C856.35 640.39 928 736.92 928 844.47v35.91c0 43.9-34.96 79.62-77.92 79.62z" fill="#298DF7" p-id="1868"></path><path d="M432 246c-8.8 0-16-7.2-16-16v-22c0-8.8 7.2-16 16-16s16 7.2 16 16v22c0 8.8-7.2 16-16 16zM592 246c-8.8 0-16-7.2-16-16v-22c0-8.8 7.2-16 16-16s16 7.2 16 16v22c0 8.8-7.2 16-16 16z" fill="#FFFFFF" p-id="1869"></path></svg>