<svg t="1564557643248" class="icon" viewBox="0 0 1024 1024" version="1.1" xmlns="http://www.w3.org/2000/svg" p-id="1616" width="128" height="128"><path d="M315.49 955.53l-50.15-138.49c-6.56-18.1-23.43-31.8-42.5-34.48L76.99 762.02c-3.1-0.44-4.86-4.04-3.06-6.26l140.35-172.98 248.31 201.47-140.35 172.99c-1.8 2.21-5.69 1.23-6.75-1.71zM717.72 957.08l50.15-138.49c6.56-18.1 23.43-31.8 42.5-34.48l145.85-20.54c3.1-0.44 4.86-4.04 3.06-6.26L818.93 584.33 570.61 785.81l140.35 172.98c1.8 2.22 5.69 1.24 6.76-1.71z" fill="#FEC744" p-id="1617"></path><path d="M510.71 422.3m-384.32 0a384.32 384.32 0 1 0 768.64 0 384.32 384.32 0 1 0-768.64 0Z" fill="#FFEBCC" p-id="1618"></path><path d="M379.9 640c-8.73 0-17.4-2.86-24.82-8.47-13.12-9.95-19.56-26.47-16.82-43.14l19.96-121.31c0.94-5.72-0.88-11.57-4.88-15.63l-84.53-85.91c-11.62-11.8-15.72-29.13-10.7-45.22 5.01-16.08 18.1-27.57 34.14-30l116.82-17.71c5.52-0.83 10.29-4.45 12.77-9.67l52.24-110.36C481.24 137.42 495.78 128 512 128c16.21 0 30.75 9.42 37.92 24.59l52.24 110.36c2.48 5.22 7.24 8.84 12.77 9.67l116.83 17.71c16.04 2.43 29.13 13.92 34.14 30 5.02 16.09 0.92 33.41-10.7 45.22l-84.53 85.91c-3.99 4.06-5.82 9.9-4.87 15.63l19.95 121.31c2.74 16.66-3.7 33.19-16.82 43.14-13.13 9.94-30.18 11.21-44.55 3.36l-104.49-57.27a16.285 16.285 0 0 0-15.77 0L399.63 634.9c-6.25 3.41-13.01 5.1-19.73 5.1z" fill="#FEC744" p-id="1619"></path></svg>