<svg t="1564560045767" class="icon" viewBox="0 0 1024 1024" version="1.1" xmlns="http://www.w3.org/2000/svg" p-id="1741" width="128" height="128"><path d="M891.85 561.69h-133.8c-12.53 0-22.67-9.87-22.67-22.04v-122.5c0.05-19.94-9.16-38.85-25.07-51.47L518.4 213.34V172.4h-0.01l0.07-6.9c20.77 7.33 56.03 17.17 70.85 5.39 14.78-11.43 48.24-7.65 69.15-3.88 3.43 0.39 6.85-0.76 9.3-3.13 2.46-2.37 3.64-5.71 3.22-9.05-1.51-24.4-0.24-48.88 3.77-73.01 0.73-4.8-1.87-9.5-6.39-11.55-25.05-11.31-75.79-5.84-94.58 4.63-14.15 7.91-42.36 5.12-58.89 2.43-7.95-1.29-9.86 3.68-9.91 6.22v82.84c0.01 0 0.01 0 0.01 0.01v46.88L313.55 364.4c-15.84 12.56-25.03 31.36-25.05 51.21l-0.25 124.53c0 12.16-10.16 22.03-22.68 22.03h-133.8c-37.29 0.2-67.5 29.47-67.77 65.69v265.96C64 930.37 94.52 960 132.16 960h245.79c12.05 0.03 23.62-4.59 32.16-12.86 8.52-8.26 13.31-19.48 13.31-31.18v-69.71c0-46.03 38.43-83.35 85.83-83.35 50.17 0 90.84 39.5 90.84 88.21v64.84c0 24.32 20.29 44.03 45.34 44.03h246.42c37.64 0 68.15-29.63 68.15-66.18V627.86c0-36.54-30.52-66.17-68.15-66.17z" fill="#D2E9FF" p-id="1742"></path><path d="M955.72 615.55c-33.43-57.14-81.72-76.17-115.78-82.15-21.1-3.66-42.66-1.16-62.69 7.27l-184.98 77.26-2.5-0.08c-11.73-0.43-23.04-5.06-32.35-13.23-50.43-44.1-218.75-190.43-259.66-213.12-16.44-9.11-30.28-8.93-41.4-4.7-21.01 8.02-29.71 37.15-17.83 58.86L404.4 696.38l-134.25 56.04c-18.48 7.72-38.96 6.12-56.35-4.41l-82.13-49.61c-9.38-5.67-19.91-8.38-30.5-7.84l-20.2 1.04c-15.56 0.8-22.74 22.98-11.55 35.64l126.61 143.04c20.16 22.94 49.68 31.36 76.88 21.93L942.6 658.95c15.83-5.51 22.45-27.46 13.12-43.4z" fill="#008EFF" p-id="1743"></path><path d="M860.53 538.35l-40.86 16.66c-3.49 1.48-5.28 5.92-3.98 9.92 0.27 0.84 0.67 1.63 1.18 2.32l25.68 34.6c1.68 2.29 4.4 3.19 6.89 2.28l75.88-27.59s-21.58-29.89-64.79-38.19z m-57.46 29.36l24.76 34.65c2.36 3.3 1.94 8.17-0.95 10.87-0.61 0.57-1.31 1.02-2.05 1.32l-28.02 10.69c-2.59 0.98-5.45-0.02-7.12-2.49l-23.6-34.34c-2.31-3.35-1.81-8.21 1.12-10.85 0.55-0.5 1.17-0.9 1.84-1.18l26.91-10.96c2.55-1.02 5.39-0.11 7.11 2.29z" fill="#FFFFFF" p-id="1744"></path></svg>