<svg t="1564557603177" class="icon" viewBox="0 0 1024 1024" version="1.1" xmlns="http://www.w3.org/2000/svg" p-id="1489" width="128" height="128"><path d="M800 765.07H160c-52.8 0-96-43.2-96-96V224c0-52.8 43.2-96 96-96h640c52.8 0 96 43.2 96 96v445.07c0 52.8-43.2 96-96 96z" fill="#D2E9FF" p-id="1490"></path><path d="M864 831.27H224c-52.8 0-96-43.2-96-96V290.2c0-52.8 43.2-96 96-96h640c52.8 0 96 43.2 96 96v445.07c0 52.8-43.2 96-96 96z" fill="#008EFF" p-id="1491"></path><path d="M416 448.73H224c-17.6 0-32-14.4-32-32s14.4-32 32-32h192c17.6 0 32 14.4 32 32s-14.4 32-32 32zM416 640H224c-17.6 0-32-14.4-32-32s14.4-32 32-32h192c17.6 0 32 14.4 32 32s-14.4 32-32 32z" fill="#FFFFFF" p-id="1492"></path><path d="M736 416m-96 0a96 96 0 1 0 192 0 96 96 0 1 0-192 0Z" fill="#FFFFFF" p-id="1493"></path><path d="M866.03 704H605.97c-16.53 0-29.97-11.91-29.97-26.54v-11.97c0-35.85 27.56-68.02 67.01-78.24C671.43 579.89 703.58 576 736 576s64.57 3.89 92.98 11.24c39.46 10.22 67.02 42.39 67.02 78.24v11.97c0 14.64-13.44 26.55-29.97 26.55z" fill="#FFFFFF" p-id="1494"></path></svg>