<svg t="1564557435556" class="icon" viewBox="0 0 1024 1024" version="1.1" xmlns="http://www.w3.org/2000/svg" p-id="1239" width="128" height="128"><path d="M742.14 198.78c-42.77-73.63-135.28-92.79-202.92-43.37-8.95 8.07-18.9 18.16-29.84 28.24-1.99-2.02-3.98-5.04-6.96-7.06-41.78-41.35-91.51-56.48-148.21-37.32-97.48 33.28-123.34 158.35-76.59 232.99 18.9 30.26 43.77 54.47 69.63 77.66C395 494.3 447.71 532.63 501.43 569.94c11.94 8.07 13.93 8.07 25.86 0 60.68-43.37 118.37-90.77 171.09-144.23 20.89-21.18 40.78-43.37 52.72-70.6 23.87-53.45 20.88-105.9-8.96-156.33z" fill="#F74B6F" p-id="1240"></path><path d="M511.99 830.62c1.37 3.09-112.17 0-112.17 0s-53.03-45.16-87.7-47.62-149.9-56.21-208.03-164.41-41.81-109.02-27.53-105.73 66.22 85.09 92.97 105.03c29.87 22.27 129.04 90.07 133.42 62.47 2.04-18.89-85.48-67.42-96.45-72.74-16.11-7.8 11.15-28.85 164.77 50.57 56.02 28.96 80.31 35.85 140.72 172.43z" fill="#FFCCD2" p-id="1241"></path><path d="M511.02 830.62c-1.37 3.09 112.17 0 112.17 0s53.03-45.16 87.7-47.62c34.67-2.46 149.9-56.21 208.03-164.41 58.13-108.2 41.81-109.02 27.53-105.74-14.28 3.28-66.22 85.09-92.97 105.03-29.87 22.27-129.04 90.07-133.42 62.47-2.04-18.89 85.48-67.42 96.45-72.74 16.11-7.8-11.15-28.85-164.77 50.57-56.02 28.97-80.31 35.86-140.72 172.44z" fill="#FFCCD2" p-id="1242"></path></svg>