<svg t="1580964996316" class="icon" viewBox="0 0 1024 1024" version="1.1" xmlns="http://www.w3.org/2000/svg" p-id="2123" width="128" height="200"><path d="M512 0a512 512 0 1 0 512 512A512 512 0 0 0 512 0z m0 787.456a75.093333 75.093333 0 0 1-76.572444-73.500444h153.144888A74.979556 74.979556 0 0 1 512 787.456z m204.8-97.962667H307.2a24.576 24.576 0 1 1 0.682667-48.924444c24.917333-0.796444 24.917333-97.962667 24.917333-97.962667v-67.356444a193.422222 193.422222 0 0 1 128.341333-182.044445 47.104 47.104 0 0 1-0.682666-8.078222 51.086222 51.086222 0 0 1 102.4 0 47.331556 47.331556 0 0 1-0.682667 8.078222 188.757333 188.757333 0 0 1 128.341333 182.044445v68.266666s0 97.28 25.486223 97.28A24.462222 24.462222 0 1 1 716.8 689.493333z" fill="#53B8E8" p-id="2124"></path></svg>
