<svg t="1564557572499" class="icon" viewBox="0 0 1024 1024" version="1.1" xmlns="http://www.w3.org/2000/svg" p-id="1364" width="128" height="200"><path d="M727.18 957.65l-616.4-172.19c-33.9-9.47-53.89-44.96-44.42-78.86L576 320.41l305.36 85.3c33.9 9.47 53.89 44.96 44.42 78.86L806.03 913.23c-9.47 33.9-44.95 53.89-78.85 44.42z" fill="#FFE7B6" p-id="1365"></path><path d="M768 829.07H128c-35.2 0-64-28.8-64-64V320c0-35.2 28.8-64 64-64h640c35.2 0 64 28.8 64 64v445.07c0 35.2-28.8 64-64 64z" fill="#FEC744" p-id="1366"></path><path d="M678.64 577.17l-9.18-14.93v-62.63-0.42c0-0.85-0.14-1.67-0.34-2.46-0.72-3.39-2.71-6.55-6.06-8.61L482.3 376.93a13.454 13.454 0 0 0-14.1 0l-180.76 111.2c-8.54 5.25-8.54 17.66 0 22.91l69.71 42.88v60.2c0 17.6 14.4 32.01 32.01 32.01h172.17c17.6 0 32.01-14.4 32.01-32.01v-60.2l55.68-34.25v42.57l-9.18 14.93a2.13 2.13 0 0 0 0 2.23l17.59 28.59c0.83 1.35 2.79 1.35 3.62 0l17.59-28.59c0.42-0.68 0.42-1.55 0-2.23z" fill="#FFFFFF" p-id="1367"></path></svg>