<svg t="1564485079646" class="icon" viewBox="0 0 1024 1024" version="1.1" xmlns="http://www.w3.org/2000/svg" p-id="1239" width="128" height="128"><path d="M341.33 64H202.67C126.4 64 64 126.4 64 202.67v138.67C64 417.6 126.4 480 202.67 480H480V202.67C480 126.4 417.6 64 341.33 64zM341.33 960H202.67C126.4 960 64 897.6 64 821.33V682.67C64 606.4 126.4 544 202.67 544H480v277.33C480 897.6 417.6 960 341.33 960zM682.67 64h138.67C897.6 64 960 126.4 960 202.67v138.67C960 417.6 897.6 480 821.33 480H544V202.67C544 126.4 606.4 64 682.67 64zM682.67 960h138.67C897.6 960 960 897.6 960 821.33V682.67C960 606.4 897.6 544 821.33 544H544v277.33C544 897.6 606.4 960 682.67 960z" fill="#298DF7" p-id="1240"></path></svg>