<svg t="1581609598756" class="icon" viewBox="0 0 1024 1024" version="1.1" xmlns="http://www.w3.org/2000/svg" p-id="5224" width="128" height="200"><path d="M550.790825 92.876918c1.791015-5.833592 2.660936-11.667183 2.660937-17.398431V45.389436C553.451762 20.315227 534.620519 0 512.156074 0c-23.283194 0-42.114437 20.315227-42.114437 45.440608v29.986707c0 5.833592 0.921093 11.616011 3.58203 17.398431C236.851492 114.215581 51.2 326.988157 51.2 587.197042c0 11.616011 0.921093 22.259757 1.791015 33.875768 29.628504-47.43631 80.698016-79.316376 138.16401-79.316376 70.770676 0 130.897606 49.329669 155.153066 117.030033 28.656239-68.67263 91.444106-117.030033 165.847983-117.030033 73.585128 0 137.242916 48.357403 165.029234 117.030033 24.255459-67.700365 84.38239-117.030033 156.074159-117.030033 57.414822 0 107.665584 31.880066 138.16401 79.316376 0.869922-11.616011 0.869922-22.259757 0.869922-33.875768 0-260.208885-185.651492-473.032632-421.502574-494.320124zM470.041637 873.503573c0 32.852331-25.074209 59.973415-55.623807 59.973415-31.368347 0-56.493728-27.121083-56.493728-59.973415v-29.986707s-8.033981-32.903503-41.244516-32.903503c-31.368347 0-42.165609 32.903503-42.165609 32.903503v29.986707c0 83.205437 62.787867 149.933537 139.903853 149.933537 77.167158 0 139.033931-66.7281 139.033932-149.933537v-240.865924h-83.410125v240.865924z" fill="#33BBFF" p-id="5225"></path></svg>
